<?xml version="1.0" encoding="utf-8"?>
<!-- Generator: Adobe Illustrator 19.0.0, SVG Export Plug-In . SVG Version: 6.00 Build 0)  -->
<svg version="1.1" xmlns="http://www.w3.org/2000/svg" xmlns:xlink="http://www.w3.org/1999/xlink" x="0px" y="0px"
	 viewBox="0 0 137.3 137.8" style="enable-background:new 0 0 137.3 137.8;" xml:space="preserve">
<style type="text/css">
	.st0{display:none;}
	.st1{display:inline;fill:#2D9C42;}
	.st2{fill:#2D9C42;}
	.st3{fill:#FFFFFF;}
</style>
<g id="Livello_2" class="st0">
	<rect x="-21.3" y="-6.2" class="st1" width="168.7" height="155.3"/>
</g>
<g id="stefano_x27_s_cropped_xA0_Immagine_1_">
	<g>
		<path class="st2" d="M0.2,138c0-45.9,0-91.8,0-137.8c45.8,0,91.5,0,137.3,0c0,0.6-0.1,1.1-0.1,1.7c0,44.8,0,89.5,0,134.3
			c0,0.5,0,1.1,0,1.7c-0.7,0-1.2,0-1.7,0c-44.6,0-89.2,0-133.8,0C1.4,137.9,0.8,138,0.2,138z M8.7,71.1c0.9,15.9,6.7,29.6,17.9,40.7
			c11.3,11.2,25,16.8,40.9,17.5c0,1.1,0,2.1,0,3.2c0,0.8,0.2,1.5,1.1,1.5c1,0,1.2-0.7,1.2-1.5c0-1.1,0-2.1,0-3.2
			c16.1-0.6,29.9-6.2,41.3-17.3c11.4-11.2,17.2-24.9,18.1-40.8c1.1,0,2.1,0,3.2,0c0.9,0,1.6-0.2,1.5-1.2c0-0.9-0.7-1.1-1.5-1.1
			c-1.1,0-2.1,0-3.2,0c-0.4-16.4-6-30.5-17.4-42c-11.4-11.6-25.4-17.4-41.7-18c0-1.2,0-2.4,0-3.5c0-0.8-0.2-1.5-1.2-1.5
			c-0.9,0-1.2,0.7-1.2,1.5c0,1.1,0,2.3,0,3.5c-16.4,0.6-30.4,6.5-41.7,18.1C14.7,38.4,9,52.5,8.7,68.8c-1.3,0-2.4,0-3.6,0
			c-0.8,0-1.4,0.3-1.4,1.2c0,0.9,0.5,1.2,1.3,1.2C6.3,71.1,7.4,71.1,8.7,71.1z"/>
		<path class="st3" d="M0.2,138c0.6,0,1.1-0.1,1.7-0.1c44.6,0,89.2,0,133.8,0c0.5,0,1,0,1.7,0c0-0.6,0-1.2,0-1.7
			c0-44.8,0-89.5,0-134.3c0-0.6,0.1-1.1,0.1-1.7c0.1,0,0.2,0.1,0.2,0.1c0,0.3,0,0.6,0,1c0,45.6,0,91.3,0,136.9c-45.5,0-91,0-136.4,0
			C1,138.2,0.6,138.1,0.2,138z"/>
		<path class="st3" d="M8.7,71.1c-1.3,0-2.5,0-3.6,0c-0.8,0-1.3-0.3-1.3-1.2c0-0.9,0.6-1.2,1.4-1.2c1.2,0,2.3,0,3.6,0
			c0.3-16.3,6-30.4,17.4-42C37.5,15.2,51.5,9.3,67.8,8.7c0-1.2,0-2.3,0-3.5c0-0.8,0.2-1.5,1.2-1.5c0.9,0,1.2,0.6,1.2,1.5
			c0,1.1,0,2.2,0,3.5c16.3,0.6,30.3,6.4,41.7,18c11.4,11.6,17,25.6,17.4,42c1.1,0,2.1,0,3.2,0c0.8,0,1.5,0.2,1.5,1.1
			c0,1-0.7,1.2-1.5,1.2c-1,0-2.1,0-3.2,0c-0.9,16-6.7,29.7-18.1,40.8c-11.4,11.2-25.2,16.8-41.3,17.3c0,1,0,2.1,0,3.2
			c0,0.9-0.2,1.6-1.2,1.5c-0.9,0-1.1-0.7-1.1-1.5c0-1,0-2.1,0-3.2c-15.9-0.7-29.7-6.3-40.9-17.5C15.4,100.7,9.6,87,8.7,71.1z
			 M67.8,11c-10.4,0.3-19.9,3-28.7,8.3c-11.5,7-19.6,16.9-24.4,29.5c-2.4,6.4-3.6,13.1-3.6,20c0.8,0,1.4,0,2,0
			c0.8,0,1.3,0.3,1.3,1.2c0,0.9-0.6,1.2-1.4,1.1c-0.2,0-0.5,0-0.7,0c-0.8-0.1-1.2,0.2-1.1,1.1c0.3,2.2,0.4,4.4,0.8,6.5
			c2.5,14,9.2,25.6,20.1,34.7c9.2,7.7,19.8,11.9,31.7,13.1c1.2,0.1,2.4,0,3.7,0c0-0.6,0-1.1,0-1.6c0-0.8,0-1.7,1.1-1.7
			c1.1,0,1.2,0.8,1.2,1.7c0,0.6,0,1.2,0,2c2.9-0.3,5.6-0.4,8.2-0.8c16.1-2.8,28.9-10.7,38.4-24c6-8.4,9.3-17.9,10.3-28.1
			c0.3-2.7,0.2-2.7-2.3-2.9c-0.7-0.1-1.2-0.4-1.2-1.2c0-0.8,0.5-1.2,1.2-1.2c0.8,0,1.7,0,2.6,0c-0.1-10.4-2.6-20.1-7.8-28.9
			c-6.9-11.7-16.7-20.1-29.3-25.1C83.6,12.3,77,11.1,70.2,11c0,0.9,0,1.6,0,2.3c0,0.8-0.5,1.3-1.2,1.1c-0.4-0.1-0.9-0.7-1.1-1.1
			C67.7,12.6,67.8,11.9,67.8,11z"/>
		<path class="st2" d="M67.8,11c0,0.9-0.1,1.7,0,2.3c0.1,0.5,0.6,1,1.1,1.1c0.7,0.2,1.2-0.4,1.2-1.1c0-0.7,0-1.4,0-2.3
			c6.9,0.1,13.4,1.4,19.7,3.8c12.7,5,22.5,13.3,29.3,25.1c5.2,8.9,7.7,18.5,7.8,28.9c-0.9,0-1.7,0-2.6,0c-0.8,0-1.2,0.4-1.2,1.2
			c0,0.8,0.5,1.1,1.2,1.2c2.6,0.2,2.6,0.2,2.3,2.9c-1,10.3-4.3,19.7-10.3,28.1c-9.5,13.3-22.3,21.2-38.4,24
			c-2.7,0.5-5.4,0.6-8.2,0.8c0-0.8,0-1.4,0-2c0-0.9-0.1-1.7-1.2-1.7c-1.1,0-1.2,0.9-1.1,1.7c0,0.5,0,1,0,1.6c-1.3,0-2.5,0.1-3.7,0
			c-11.9-1.2-22.5-5.5-31.7-13.1c-10.9-9.1-17.6-20.7-20.1-34.7c-0.4-2.2-0.5-4.4-0.8-6.5c-0.1-0.9,0.2-1.2,1.1-1.1
			c0.2,0,0.5,0,0.7,0c0.8,0,1.4-0.3,1.4-1.1c0-0.9-0.5-1.2-1.3-1.2c-0.6,0-1.2,0-2,0c0-6.9,1.2-13.6,3.6-20
			c4.8-12.6,12.9-22.5,24.4-29.5C47.9,14,57.4,11.3,67.8,11z M46.4,86.1c0-0.1,0.1-0.2,0.1-0.4c-0.3-0.2-0.5-0.4-0.8-0.5
			c-2.3-0.9-4.6-1.8-7-2.6c-4.5-1.6-9-3.1-13.5-4.6c-1-0.3-1.4-0.8-1.1-1.8c0.3-1,0.5-2.1,0.9-3.1c0.5-1.7,1.6-2.2,3.2-1.6
			c5.1,1.7,10.1,3.5,15.2,5.2c7.5,2.6,15,5.2,22.4,7.7c0.5,0.2,1.3,0.2,1.8-0.1c6.2-3.1,12.5-6.4,18.7-9.5
			c8.1-4.1,16.2-8.2,24.2-12.4c0.8-0.4,1.5-0.8,2.5-1.4c-0.3,0.8-0.5,1.2-0.6,1.6c-0.4,1.4-0.8,2.8-1.1,4.3c-0.1,0.8-0.4,1.2-1,1.6
			c-2.4,1.3-4.7,2.7-7.1,4.1c-1.1,0.7-2.2,1.4-3.3,2c0.1,0.1,0.1,0.3,0.2,0.4c4-1.1,7.4-3.6,11-5.5c0.6,1.3,0.4,2.1-0.8,2.7
			c-1.7,0.9-3.4,1.9-5.1,3c-0.3,0.2-0.5,0.5-0.8,0.8c0.1,0.1,0.2,0.2,0.2,0.3c2.6-0.7,4.8-2.3,7.2-3.5c0.8,1.5,1.5,2.9,2.2,4.4
			c-2,1.1-3.9,2.1-5.9,3.1c-7.8,4.1-15.6,8.1-23.4,12.2c-4.2,2.2-8.3,4.4-12.5,6.6c-2.1,1.1-4.1,2.3-6.9,1.3c-8.9-3.2-18-6-26.9-9
			c-1.8-0.6-2.2-0.3-1.8,1.5c0.1,0.4,0.8,0.9,1.3,1.1c9.8,3.3,19.7,6.6,29.5,9.9c0.6,0.2,1.5,0.1,2-0.2c3.1-1.6,6.2-3.3,9.3-4.9
			c12.5-6.6,25-13.2,37.5-19.8c0.2-0.1,0.5-0.2,0.6-0.4c0.2-0.3,0.5-0.7,0.5-1.1c0-0.1-0.5-0.4-0.8-0.5c-0.3-0.1-0.8-0.1-1-0.4
			c-1-1.4-2.5-2.8-2.9-4.4c-1.2-4.1-0.2-8.1,2.3-11.6c0.4-0.6,1.2-1,1.7-1.6c0.4-0.5,0.7-1.3,0.6-1.9c0-0.4-0.7-0.9-1.2-1
			c-7.7-1.3-15.4-2.6-23.1-3.8c-1.5-0.2-2-0.8-1.5-2.2c0.1-0.4,0.6-0.8,1.1-1c4.4-2.6,8.8-5.2,13.2-7.8c1-0.6,1.6-3.7,0.8-4.6
			c-0.2-0.2-0.6-0.4-0.9-0.4c-1-0.2-2-0.3-3.1-0.5c-11.7-1.9-23.5-3.8-35.2-5.7c-1.8-0.3-3.5-0.8-5.4,0.2
			c-10,5.1-20.1,9.9-30.2,14.9c-2.4,1.2-2.4,1.2-2.1,3.8c0.1,0.9,0.5,1.3,1.3,1.4c5.3,0.9,10.6,1.8,16,2.7c0.7,0.1,1.4,0.3,2.5,0.5
			c-0.6,0.4-0.8,0.7-1,0.8c-4.9,2.2-9.8,4.3-14.7,6.5c-3.5,1.5-6.9,3.1-10.4,4.6c-1.3,0.6-2.1,1.5-2.4,2.8c-0.3,1-0.6,2-0.5,3
			c0.2,3.6,0.6,7.2,1,10.7c0.5,4.5,3.2,7.3,7.3,8.8c1,0.4,1.2,0.9,1.3,1.8c0.1,1.9,0.4,3.8,0.8,5.7c0.2,0.7,0.8,1.4,1.2,2.1
			c0.1,0,0.2-0.1,0.3-0.1c0.2-1.3,0.4-2.6,0.6-4.1c2.1,4.2,2.1,4.3,3.4,4.6c0-0.7,0.1-1.4,0-2c-0.8-4.6-0.1-9.1,1-13.6
			c0.2-0.8,0.5-1,1.3-0.8c2.2,0.6,4.5,1.1,6.8,1.6C45.6,86.1,46,86.1,46.4,86.1z"/>
		<path class="st3" d="M46.4,86.1c-0.4,0-0.7,0-1.1-0.1c-2.3-0.5-4.5-1-6.8-1.6c-0.8-0.2-1.1,0-1.3,0.8c-1.1,4.5-1.8,9-1,13.6
			c0.1,0.6,0,1.3,0,2c-1.2-0.3-1.3-0.4-3.4-4.6c-0.2,1.5-0.4,2.8-0.6,4.1c-0.1,0-0.2,0.1-0.3,0.1c-0.4-0.7-1.1-1.3-1.2-2.1
			c-0.4-1.9-0.7-3.8-0.8-5.7c-0.1-1-0.3-1.5-1.3-1.8c-4.1-1.5-6.8-4.3-7.3-8.8c-0.4-3.6-0.7-7.1-1-10.7c-0.1-1,0.2-2.1,0.5-3
			c0.4-1.3,1.1-2.2,2.4-2.8c3.5-1.5,6.9-3.1,10.4-4.6c4.9-2.2,9.8-4.3,14.7-6.5c0.3-0.1,0.5-0.4,1-0.8c-1.1-0.2-1.8-0.4-2.5-0.5
			c-5.3-0.9-10.6-1.8-16-2.7c-0.8-0.1-1.2-0.5-1.3-1.4c-0.3-2.6-0.3-2.6,2.1-3.8c10.1-4.9,20.2-9.8,30.2-14.9c1.9-1,3.6-0.5,5.4-0.2
			c11.7,1.9,23.5,3.8,35.2,5.7c1,0.2,2.1,0.3,3.1,0.5c0.3,0.1,0.7,0.2,0.9,0.4c0.8,0.9,0.2,4-0.8,4.6c-4.4,2.6-8.8,5.2-13.2,7.8
			c-0.4,0.2-0.9,0.6-1.1,1c-0.4,1.4,0,2,1.5,2.2c7.7,1.2,15.4,2.5,23.1,3.8c0.5,0.1,1.1,0.7,1.2,1c0,0.6-0.3,1.3-0.6,1.9
			c-0.4,0.6-1.2,1-1.7,1.6c-2.5,3.5-3.5,7.4-2.3,11.6c0.5,1.6,1.9,3,2.9,4.4c0.2,0.2,0.7,0.2,1,0.4c0.3,0.1,0.8,0.3,0.8,0.5
			c0,0.4-0.3,0.8-0.5,1.1c-0.1,0.2-0.4,0.2-0.6,0.4c-12.5,6.6-25,13.2-37.5,19.8c-3.1,1.6-6.2,3.3-9.3,4.9c-0.6,0.3-1.4,0.4-2,0.2
			c-9.9-3.3-19.7-6.6-29.5-9.9c-0.5-0.2-1.2-0.7-1.3-1.1c-0.3-1.9,0.1-2.1,1.8-1.5c9,3,18,5.8,26.9,9c2.8,1,4.7-0.2,6.9-1.3
			c4.2-2.2,8.3-4.4,12.5-6.6c7.8-4.1,15.6-8.1,23.4-12.2c1.9-1,3.9-2.1,5.9-3.1c-0.7-1.5-1.5-2.9-2.2-4.4c-2.4,1.2-4.5,2.8-7.2,3.5
			c-0.1-0.1-0.2-0.2-0.2-0.3c0.3-0.3,0.5-0.6,0.8-0.8c1.7-1,3.3-2.1,5.1-3c1.2-0.6,1.4-1.5,0.8-2.7c-3.6,1.9-7,4.4-11,5.5
			c-0.1-0.1-0.1-0.3-0.2-0.4c1.1-0.7,2.2-1.4,3.3-2c2.3-1.4,4.7-2.8,7.1-4.1c0.7-0.4,0.9-0.8,1-1.6c0.3-1.4,0.7-2.9,1.1-4.3
			c0.1-0.4,0.3-0.9,0.6-1.6c-1,0.6-1.8,1-2.5,1.4c-8.1,4.1-16.2,8.2-24.2,12.4c-6.2,3.2-12.4,6.4-18.7,9.5c-0.5,0.2-1.3,0.3-1.8,0.1
			c-7.5-2.5-15-5.1-22.4-7.7c-5.1-1.7-10.1-3.5-15.2-5.2c-1.6-0.6-2.7,0-3.2,1.6c-0.3,1-0.6,2.1-0.9,3.1c-0.3,1,0.2,1.5,1.1,1.8
			c4.5,1.5,9,3,13.5,4.6c2.3,0.8,4.7,1.7,7,2.6c0.3,0.1,0.5,0.3,0.8,0.5C46.4,85.9,46.4,86,46.4,86.1z M91.5,48.4
			c0.4-0.1,0.6-0.2,0.7-0.3c2.6-1.5,5.1-3,7.6-4.5c1.8-1,3.5-2.1,5.3-3.1c1.1-0.6,0.6-1.6,0.6-2.4c0-0.2-0.7-0.6-1.1-0.7
			c-2.3-0.4-4.6-0.8-6.8-1.2c-9.8-1.6-19.6-3.2-29.3-4.8c-2.6-0.4-5.3-1.1-7.7,0.8c-0.3,0.3-0.8,0.4-1.2,0.6
			c-9.4,4.6-18.7,9.2-28.1,13.7c-1,0.5-0.8,1.1-0.8,1.8c0,0.8,0.5,0.8,1.1,0.9c4,0.6,8,1.3,12,2c10.7,1.8,21.5,3.6,32.2,5.4
			c0.6,0.1,1.5-0.1,2-0.4c2.1-1.2,4.2-2.4,6.3-3.7c1.3-0.8,2.5-1.5,3.8-2.3c0.9-0.5,0.7-1.4,0.6-2.1c0-0.2-0.5-0.6-0.8-0.7
			c-6-1.2-12-2.4-17.9-3.6c-1.1-0.2-2.1-0.4-3.2-0.7c-0.4-0.1-0.9-0.7-0.8-0.9c0.1-0.4,0.5-0.9,0.9-1c0.6-0.2,1.3-0.1,1.9,0
			c6.7,1.4,13.3,2.9,20,4.4C90.5,46,91.9,46.2,91.5,48.4z M89,51.4c-0.6,0.3-0.9,0.5-1.3,0.7c-3,1.8-6,3.6-9.1,5.3
			c-0.5,0.3-1.3,0.6-1.9,0.5c-7.3-1.2-14.6-2.4-21.8-3.6c-1.4-0.2-2.8-0.4-4.4-0.7c0,0.6,0,1,0,1.4c0,3.6,0.1,7.3,0,10.9
			c0,1.4,0.4,2.4,1.5,3c2.2,1.2,4.4,2.5,6.7,3.3c4.9,1.7,10,1.6,15,0.9c4-0.5,7.6-2,11-4.1c0.7-0.5,1-0.9,0.9-1.9
			c-0.3-3,0.1-6,1.8-8.5c1.2-1.7,1.6-3.4,1.5-5.3C88.9,52.9,89,52.3,89,51.4z M92.1,67.4c0.1,0.1,0.2,0.2,0.4,0.2c0.3-0.5,1-1,1-1.5
			C93.4,63,93,60,91.1,57.4c-0.2-0.3-0.4-0.7-0.4-1.1c0-2.8,0-5.7,0.1-8.5c0-0.7-0.3-1.1-1-1.3c-0.9-0.2-1.8-0.4-2.7-0.5
			c-6.4-1.4-12.9-2.7-19.3-4.1c-0.3-0.1-0.7,0.1-1,0.1c0,0.1,0,0.3,0,0.4c0.9,0.2,1.8,0.4,2.8,0.6c6.2,1.3,12.4,2.6,18.6,3.9
			c1,0.2,1.5,0.7,1.4,1.8c-0.1,2.3,0,4.6-0.1,6.8c0,0.9-0.4,2-0.8,2.8c-1.5,2.5-2.2,5.1-2.3,8c0,0.9,0.6,1,1.2,1.2
			c0.1,0,0.5-0.5,0.7-0.8c0.1-0.2,0.2-0.4,0.5-0.9c0.1,1,0.1,1.6,0.2,2.4c0.9-0.1,1.6-0.1,2.4-0.2c0-0.8,0-1.4,0-2
			c0.1,0,0.2,0,0.3-0.1C91.9,66.4,92,66.9,92.1,67.4z M29.8,88.3c0.4-1.8,0.9-3.5,1.2-5.2c0.1-0.3-0.1-0.9-0.3-1
			c-2-0.7-4.1-1.4-6.2-2.1C24.2,83,26.9,87.2,29.8,88.3z"/>
		<path class="st2" d="M91.5,48.4c0.5-2.2-1-2.4-2.5-2.7c-6.7-1.4-13.3-2.9-20-4.4c-0.6-0.1-1.3-0.2-1.9,0c-0.4,0.1-0.8,0.6-0.9,1
			c0,0.3,0.5,0.8,0.8,0.9c1,0.3,2.1,0.5,3.2,0.7c6,1.2,12,2.4,17.9,3.6c0.3,0.1,0.7,0.4,0.8,0.7c0.1,0.8,0.3,1.6-0.6,2.1
			c-1.3,0.7-2.5,1.5-3.8,2.3c-2.1,1.2-4.2,2.5-6.3,3.7c-0.6,0.3-1.4,0.5-2,0.4c-10.8-1.8-21.5-3.6-32.2-5.4c-4-0.7-8-1.3-12-2
			c-0.6-0.1-1.1-0.1-1.1-0.9c0-0.7-0.2-1.4,0.8-1.8c9.4-4.5,18.8-9.1,28.1-13.7c0.4-0.2,0.8-0.3,1.2-0.6c2.4-1.9,5-1.2,7.7-0.8
			c9.8,1.6,19.5,3.2,29.3,4.8c2.3,0.4,4.6,0.7,6.8,1.2c0.4,0.1,1.1,0.4,1.1,0.7c0,0.8,0.5,1.8-0.6,2.4c-1.8,1-3.5,2.1-5.3,3.1
			c-2.5,1.5-5.1,3-7.6,4.5C92.1,48.2,91.9,48.2,91.5,48.4z"/>
		<path class="st2" d="M89,51.4c0,0.8,0,1.4,0,2c0.2,2-0.3,3.6-1.5,5.3c-1.7,2.5-2.2,5.5-1.8,8.5c0.1,1-0.2,1.5-0.9,1.9
			c-3.4,2.1-7.1,3.6-11,4.1c-5,0.7-10.1,0.8-15-0.9c-2.3-0.8-4.5-2.1-6.7-3.3c-1.1-0.6-1.5-1.7-1.5-3c0.1-3.6,0-7.3,0-10.9
			c0-0.4,0-0.8,0-1.4c1.6,0.2,3,0.5,4.4,0.7c7.3,1.2,14.6,2.4,21.8,3.6c0.6,0.1,1.3-0.2,1.9-0.5c3.1-1.7,6.1-3.6,9.1-5.3
			C88,52,88.4,51.8,89,51.4z"/>
		<path class="st2" d="M92.1,67.4c-0.1-0.5-0.3-1-0.4-1.5c-0.1,0-0.2,0-0.3,0.1c0,0.6,0,1.2,0,2c-0.9,0.1-1.6,0.1-2.4,0.2
			c-0.1-0.7-0.1-1.4-0.2-2.4c-0.3,0.5-0.3,0.7-0.5,0.9c-0.2,0.3-0.5,0.9-0.7,0.8c-0.6-0.2-1.2-0.3-1.2-1.2c0.1-2.8,0.8-5.5,2.3-8
			c0.5-0.8,0.8-1.8,0.8-2.8c0.1-2.3,0-4.6,0.1-6.8c0-1.1-0.4-1.6-1.4-1.8c-6.2-1.3-12.4-2.6-18.6-3.9c-0.9-0.2-1.8-0.4-2.8-0.6
			c0-0.1,0-0.3,0-0.4c0.3,0,0.7-0.2,1-0.1c6.4,1.3,12.9,2.7,19.3,4.1c0.9,0.2,1.8,0.4,2.7,0.5c0.7,0.1,1,0.6,1,1.3
			c-0.1,2.8-0.1,5.7-0.1,8.5c0,0.4,0.2,0.8,0.4,1.1c1.8,2.6,2.3,5.7,2.3,8.8c0,0.5-0.6,1-1,1.5C92.4,67.6,92.3,67.5,92.1,67.4z"/>
		<path class="st2" d="M29.8,88.3c-2.9-1.2-5.7-5.3-5.4-8.2c2.1,0.7,4.2,1.4,6.2,2.1c0.2,0.1,0.4,0.7,0.3,1
			C30.7,84.9,30.2,86.6,29.8,88.3z"/>
	</g>
</g>
</svg>
